<?xml version="1.0" encoding="UTF-8" standalone="no"?>
<svg
   xmlns:dc="http://purl.org/dc/elements/1.1/"
   xmlns:cc="http://creativecommons.org/ns#"
   xmlns:rdf="http://www.w3.org/1999/02/22-rdf-syntax-ns#"
   xmlns:svg="http://www.w3.org/2000/svg"
   xmlns="http://www.w3.org/2000/svg"
   xml:space="preserve"
   style="enable-background:new 0 0 498.923 498.923;"
   viewBox="0 0 498.923 498.923"
   y="0px"
   x="0px"
   id="Capa_1"
   version="1.1"><metadata
   id="metadata45"><rdf:RDF><cc:Work
       rdf:about=""><dc:format>image/svg+xml</dc:format><dc:type
         rdf:resource="http://purl.org/dc/dcmitype/StillImage" /><dc:title></dc:title></cc:Work></rdf:RDF></metadata><defs
   id="defs43" />
<g
   id="g8">
	<g
   id="g6">
		<g
   id="g4">
			<path
   id="path2"
   d="M249.462,0C151.018,0,70.951,80.106,70.951,178.511c0,92.436,133.617,192.453,172.248,315.948     c0.83,2.667,3.322,4.484,6.116,4.465c2.804-0.039,5.256-1.876,6.048-4.563c37.478-126.533,172.6-223.307,172.609-315.869     C427.963,80.106,347.886,0,249.462,0z M249.462,313.925c-77.184,0-139.987-62.812-139.987-139.987     c0-77.184,62.803-139.987,139.987-139.987c77.165,0,139.977,62.803,139.977,139.987     C389.439,251.113,326.626,313.925,249.462,313.925z"
   style="fill:#010002;" />
		</g>
	</g>
</g>
<g
   id="g10">
</g>
<g
   id="g12">
</g>
<g
   id="g14">
</g>
<g
   id="g16">
</g>
<g
   id="g18">
</g>
<g
   id="g20">
</g>
<g
   id="g22">
</g>
<g
   id="g24">
</g>
<g
   id="g26">
</g>
<g
   id="g28">
</g>
<g
   id="g30">
</g>
<g
   id="g32">
</g>
<g
   id="g34">
</g>
<g
   id="g36">
</g>
<g
   id="g38">
</g>
<g
   transform="matrix(0.80564144,0,0,1.0798987,50.930332,-9.6042552)"
   id="g861"><text
   xml:space="preserve"
   style="font-style:normal;font-variant:normal;font-weight:normal;font-stretch:normal;font-size:206.19195557px;line-height:1.25;font-family:rsfs10;-inkscape-font-specification:rsfs10;letter-spacing:0px;word-spacing:0px;fill:#000000;fill-opacity:1;stroke:none;stroke-width:12.88699722"
   x="146.62567"
   y="271.62857"
   id="text854"
   transform="scale(1.1684786,0.85581371)"><tspan
     id="tspan852"
     x="146.62567"
     y="271.62857"
     style="stroke-width:12.88699722">0</tspan><tspan
     x="146.62567"
     y="529.36853"
     style="stroke-width:12.88699722"
     id="tspan856" /></text>


</g></svg>